<?xml version="1.0" encoding="UTF-8" standalone="no"?>
<!-- Created with Inkscape (http://www.inkscape.org/) -->

<svg
   xmlns:dc="http://purl.org/dc/elements/1.1/"
   xmlns:cc="http://creativecommons.org/ns#"
   xmlns:rdf="http://www.w3.org/1999/02/22-rdf-syntax-ns#"
   xmlns:svg="http://www.w3.org/2000/svg"
   xmlns="http://www.w3.org/2000/svg"
   xmlns:sodipodi="http://sodipodi.sourceforge.net/DTD/sodipodi-0.dtd"
   xmlns:inkscape="http://www.inkscape.org/namespaces/inkscape"
   width="200"
   height="170"
   viewBox="0 0 200 170"
   id="svg2"
   version="1.1"
   inkscape:version="0.91 r13725"
   sodipodi:docname="server.svg">
  <defs
     id="defs4" />
  <sodipodi:namedview
     id="base"
     pagecolor="#ffffff"
     bordercolor="#666666"
     borderopacity="1.0"
     inkscape:pageopacity="0.0"
     inkscape:pageshadow="2"
     inkscape:zoom="1.4"
     inkscape:cx="41.382247"
     inkscape:cy="54.735791"
     inkscape:document-units="px"
     inkscape:current-layer="layer1"
     showgrid="false"
     inkscape:window-width="1536"
     inkscape:window-height="801"
     inkscape:window-x="-8"
     inkscape:window-y="-8"
     inkscape:window-maximized="1"
     units="px" />
  <metadata
     id="metadata7">
    <rdf:RDF>
      <cc:Work
         rdf:about="">
        <dc:format>image/svg+xml</dc:format>
        <dc:type
           rdf:resource="http://purl.org/dc/dcmitype/StillImage" />
        <dc:title></dc:title>
      </cc:Work>
    </rdf:RDF>
  </metadata>
  <g
     inkscape:label="Layer 1"
     inkscape:groupmode="layer"
     id="layer1"
     transform="translate(0,-882.36216)">
    <g
       id="g4310"
       transform="translate(-117.21429,5.0000612)">
      <g
         transform="translate(132.21428,-20.000102)"
         id="g4222">
        <path
           style="opacity:0.92900002;fill:#000000;fill-opacity:1;stroke:none;stroke-width:0.1;stroke-miterlimit:4;stroke-dasharray:none"
           d="M 4.6660156,1012.3622 C 2.0806824,1012.3622 0,1014.4449 0,1017.0302 l 0,30.666 c 0,2.5853 2.0806824,4.666 4.6660156,4.666 l 160.6679644,0 c 2.58534,0 4.66602,-2.0807 4.66602,-4.666 l 0,-30.666 c 0,-2.5853 -2.08068,-4.668 -4.66602,-4.668 l -160.6679644,0 z M 150,1022.3622 a 10,10 0 0 1 10,10 10,10 0 0 1 -10,10 10,10 0 0 1 -10,-10 10,10 0 0 1 10,-10 z m -132.5,2.5 a 7.5,7.5 0 0 1 7.5,7.5 7.5,7.5 0 0 1 -7.5,7.5 7.5,7.5 0 0 1 -7.5,-7.5 7.5,7.5 0 0 1 7.5,-7.5 z m 17.5,2.5 a 5,5 0 0 1 5,5 5,5 0 0 1 -5,5 5,5 0 0 1 -5,-5 5,5 0 0 1 5,-5 z"
           id="rect4136"
           inkscape:connector-curvature="0" />
        <path
           inkscape:connector-curvature="0"
           style="opacity:0.92900002;fill:#000000;fill-opacity:1;stroke:none;stroke-width:0.1;stroke-miterlimit:4;stroke-dasharray:none"
           d="M 4.666015,962.3622 C 2.080682,962.3622 0,964.4449 0,967.0302 l 0,30.666 c 0,2.5853 2.080682,4.666 4.666015,4.666 l 160.667965,0 c 2.58534,0 4.66602,-2.0807 4.66602,-4.666 l 0,-30.666 c 0,-2.5853 -2.08068,-4.668 -4.66602,-4.668 l -160.667965,0 z M 150,972.3622 a 10,10 0 0 1 10,10 10,10 0 0 1 -10,10 10,10 0 0 1 -10,-10 10,10 0 0 1 10,-10 z m -132.5,2.5 a 7.5,7.5 0 0 1 7.5,7.5 7.5,7.5 0 0 1 -7.5,7.5 7.5,7.5 0 0 1 -7.5,-7.5 7.5,7.5 0 0 1 7.5,-7.5 z m 17.5,2.5 a 5,5 0 0 1 5,5 5,5 0 0 1 -5,5 5,5 0 0 1 -5,-5 5,5 0 0 1 5,-5 z"
           id="rect4136-4" />
        <path
           inkscape:connector-curvature="0"
           style="opacity:0.92900002;fill:#000000;fill-opacity:1;stroke:none;stroke-width:0.1;stroke-miterlimit:4;stroke-dasharray:none"
           d="M 4.666015,912.3622 C 2.080682,912.3622 0,914.4449 0,917.0302 l 0,30.666 c 0,2.5853 2.080682,4.666 4.666015,4.666 l 160.667965,0 c 2.58534,0 4.66602,-2.0807 4.66602,-4.666 l 0,-30.666 c 0,-2.5853 -2.08068,-4.668 -4.66602,-4.668 l -160.667965,0 z M 150,922.3622 a 10,10 0 0 1 10,10 10,10 0 0 1 -10,10 10,10 0 0 1 -10,-10 10,10 0 0 1 10,-10 z m -132.5,2.5 a 7.5,7.5 0 0 1 7.5,7.5 7.5,7.5 0 0 1 -7.5,7.5 7.5,7.5 0 0 1 -7.5,-7.5 7.5,7.5 0 0 1 7.5,-7.5 z m 17.5,2.5 a 5,5 0 0 1 5,5 5,5 0 0 1 -5,5 5,5 0 0 1 -5,-5 5,5 0 0 1 5,-5 z"
           id="rect4136-8" />
      </g>
      <g
         transform="translate(117.21429,-5.0000565)"
         id="g4306">
        <path
           style="opacity:0.92900002;fill:#000000;fill-opacity:1;stroke:none;stroke-width:0.1;stroke-miterlimit:4;stroke-dasharray:none"
           d="M 3.4140621,882.36211 C 1.5223723,882.36211 0,883.88644 0,885.77813 l 0,81.58407 10,0 0,-71.47861 c 0,-1.95032 1.569201,-3.52148 3.519531,-3.52148 l 86.480469,0 0,-6.58398 c 0,-1.89169 -1.522368,-3.41602 -3.414058,-3.41602 l -93.1718799,0 z"
           id="rect4227-1"
           inkscape:connector-curvature="0" />
        <path
           inkscape:connector-curvature="0"
           style="opacity:0.92900002;fill:#000000;fill-opacity:1;stroke:none;stroke-width:0.1;stroke-miterlimit:4;stroke-dasharray:none"
           d="m 196.58593,1052.3622 c 1.89169,0 3.41406,-1.5243 3.41406,-3.416 l 0,-81.584 -10,0 0,71.4785 c 0,1.9504 -1.5692,3.5215 -3.51953,3.5215 l -86.48046,0 0,6.584 c 0,1.8917 1.52237,3.416 3.41406,3.416 l 93.17187,0 z"
           id="rect4227-1-3" />
      </g>
    </g>
  </g>
</svg>
